<svg width="24" height="24" viewBox="0 0 24 24" fill="none" xmlns="http://www.w3.org/2000/svg">
<path d="M5.00003 13.456L12.3667 17.602L18.9794 13.902V15.3753L12.3667 19.108L5.37737 15.1347L5.0007 15.34V15.8533L12.3667 20L19.7334 15.8547V12.9767L19.3901 12.7707L12.3667 16.7453L5.7887 12.9767V11.5033L12.3667 15.2033L19.7334 11.058V8.21334L19.3901 8.008L12.3667 11.9827L6.13137 8.454L12.3667 4.92534L17.5401 7.83734L17.9854 7.56334V7.186L12.3667 4L5.00003 8.18V8.66L12.3667 12.8047L18.9794 9.10467V10.6113L12.3667 14.3467L5.37737 10.3733L5.0007 10.5787L5.00003 13.456Z" fill="#7F7989"/>
<path fill-rule="evenodd" clip-rule="evenodd" d="M4.75 13.6022L4.75073 10.4302L5.37992 10.0872L12.3671 14.0593L18.7294 10.4654V9.53103L12.3664 13.0913L4.75003 8.8062V8.03442L12.3667 3.71259L18.2354 7.04037V7.70305L17.5457 8.1274L12.3671 5.21241L6.63897 8.454L12.3667 11.6954L19.3936 7.71878L19.9834 8.07155V11.2042L12.3668 15.4902L6.0387 11.9308V12.8318L12.3675 16.4577L19.3938 12.4813L19.9834 12.8351V16.0009L12.3667 20.2869L4.7507 15.9995V15.1916L5.37992 14.8485L12.3672 18.8207L18.7294 15.2294V14.3284L12.3664 17.8887L4.75 13.6022ZM18.9794 13.902V15.3753L12.3667 19.108L5.37737 15.1347L5.0007 15.34V15.8533L12.3667 20L19.7334 15.8547V12.9767L19.3901 12.7707L12.3667 16.7453L5.7887 12.9767V11.5033L12.3667 15.2033L19.7334 11.058V8.21334L19.3901 8.008L12.3667 11.9827L6.13137 8.454L12.3667 4.92534L17.5401 7.83734L17.9854 7.56334V7.186L12.3667 4L5.00003 8.18V8.66L12.3667 12.8047L18.9794 9.10467V10.6113L12.3667 14.3467L5.37737 10.3733L5.0007 10.5787L5.00003 13.456L12.3667 17.602L18.9794 13.902Z" fill="#7F7989"/>
</svg>
