<svg width="24" height="24" viewBox="0 0 24 24" fill="none" xmlns="http://www.w3.org/2000/svg">
<path d="M12.9712 20L11.6794 16.9648C12.9237 16.5052 14.0886 15.8871 15.1665 15.1659L12.9712 20ZM7.03526 12.321L3.99992 11.0292L8.83427 8.83408C8.11308 9.91185 7.49492 11.0768 7.03526 12.321ZM17.7976 5.58495C18.0195 5.58495 18.2177 5.58495 18.3841 5.62458C18.5188 6.72611 18.3682 8.99258 15.7688 11.5919C14.4215 12.947 12.8127 13.9852 11.0058 14.6746L9.30185 13.0104C10.031 11.1798 11.0692 9.57108 12.4085 8.23181C14.5959 6.04459 16.5454 5.58495 17.7976 5.58495ZM17.7976 4.00001C16.2284 4.00001 13.8509 4.54681 11.2831 7.11442C9.54753 8.84993 8.50934 10.7598 7.8357 12.4319C7.61379 13.0263 7.76437 13.6761 8.20025 14.1199L9.88831 15.7999C10.1895 16.101 10.5937 16.2833 11.0137 16.2833C11.196 16.2833 11.3862 16.2358 11.5684 16.1644C13.2644 15.5146 15.1506 14.4527 16.8862 12.7172C21.3719 8.23181 19.6917 4.30907 19.6917 4.30907C19.6917 4.30907 18.9705 4.00001 17.7976 4.00001ZM14.0886 9.91185C13.4705 9.29372 13.4705 8.28728 14.0886 7.66915C14.7068 7.05102 15.7133 7.05102 16.3315 7.66915C16.9417 8.28728 16.9496 9.29372 16.3315 9.91185C15.7133 10.53 14.7068 10.53 14.0886 9.91185ZM7.51077 19.8494L10.3955 16.9648C10.1261 16.8935 9.86454 16.7746 9.62678 16.6082L6.39332 19.8494H7.51077ZM4.1505 19.8494H5.26795L9.04825 16.0773L7.92287 14.9599L4.1505 18.7321V19.8494ZM4.1505 17.6067L7.39189 14.3735C7.22546 14.1357 7.10658 13.8821 7.03526 13.6048L4.1505 16.4894V17.6067Z" fill="#7F7989"/>
<path fill-rule="evenodd" clip-rule="evenodd" d="M8.20025 14.1199C7.76437 13.6761 7.61379 13.0263 7.8357 12.4319C8.50934 10.7598 9.54753 8.84993 11.2831 7.11442C13.8509 4.54681 16.2284 4.00001 17.7976 4.00001C18.9705 4.00001 19.6917 4.30907 19.6917 4.30907C19.6917 4.30907 21.3719 8.23181 16.8862 12.7172C15.1506 14.4527 13.2644 15.5146 11.5684 16.1644C11.3862 16.2358 11.196 16.2833 11.0137 16.2833C10.5937 16.2833 10.1895 16.101 9.88831 15.7999L8.20025 14.1199ZM9.73983 15.9484C9.73974 15.9483 9.73991 15.9485 9.73983 15.9484L8.05212 14.2687L8.05044 14.267C7.55912 13.7668 7.38768 13.0315 7.63896 12.3585L7.64085 12.3534C8.32176 10.6632 9.37366 8.72682 11.1347 6.96592C13.7422 4.35849 16.1734 3.79001 17.7976 3.79001C18.4025 3.79001 18.8923 3.86969 19.2328 3.95017C19.4031 3.99042 19.5362 4.03089 19.6278 4.06179C19.6736 4.07724 19.7091 4.0903 19.7337 4.09975C19.746 4.10447 19.7556 4.10829 19.7624 4.11106L19.7706 4.1144L19.773 4.11545L19.7742 4.11594C19.7743 4.11597 19.7745 4.11605 19.6917 4.30907C19.8848 4.22639 19.8848 4.22654 19.8849 4.2267L19.8855 4.22816L19.8869 4.23136L19.8912 4.24206C19.8949 4.25108 19.8999 4.26388 19.9061 4.28034C19.9185 4.31325 19.9355 4.36085 19.9552 4.4223C19.9945 4.54519 20.0447 4.72362 20.0901 4.95096C20.1809 5.40564 20.2527 6.05659 20.1802 6.8502C20.035 8.44175 19.3113 10.5892 17.0347 12.8657C15.2753 14.625 13.363 15.7016 11.6442 16.3603C11.4474 16.4372 11.2305 16.4933 11.0137 16.4933C10.5328 16.4933 10.0764 16.2849 9.73983 15.9484ZM19.6917 4.30907L19.7742 4.11594L19.8517 4.14915L19.8849 4.2267L19.6917 4.30907ZM12.965 20.5216L11.3998 16.8442L11.6066 16.7679C12.8335 16.3146 13.9838 15.7046 15.0497 14.9914L15.6626 14.5813L12.965 20.5216ZM7.15585 12.6005L3.47827 11.0355L9.41892 8.33797L9.0088 8.95087C8.2956 10.0167 7.68547 11.167 7.23224 12.3937L7.15585 12.6005ZM15.7688 11.5919C18.3682 8.99258 18.5188 6.72611 18.3841 5.62458C18.2177 5.58495 18.0195 5.58495 17.7976 5.58495C16.5454 5.58495 14.5959 6.04459 12.4085 8.23181C11.0692 9.57108 10.031 11.1798 9.30185 13.0104L11.0058 14.6746C12.8127 13.9852 14.4215 12.947 15.7688 11.5919ZM11.0559 14.43C12.7848 13.7512 14.3252 12.7461 15.6199 11.4438C18.0507 9.01317 18.2849 6.89992 18.1918 5.80608C18.0822 5.7955 17.9534 5.79495 17.7976 5.79495C16.6035 5.79495 14.7066 6.23079 12.557 8.3803C11.2708 9.66646 10.2655 11.2064 9.54925 12.9585L11.0559 14.43ZM7.59775 20.0594H5.88719L9.60269 16.335L9.74721 16.4362C9.96418 16.5881 10.203 16.6967 10.4493 16.7618L10.8021 16.8552L7.59775 20.0594ZM3.9405 20.0594V18.6451L7.92235 14.6634L9.34592 16.0769L5.3548 20.0594H3.9405ZM3.9405 18.1128V16.4024L7.14699 13.1961L7.23864 13.5525C7.3034 13.8043 7.41126 14.035 7.56392 14.253L7.6651 14.3976L3.9405 18.1128ZM12.9712 20L15.1665 15.1659C15.058 15.2385 14.9486 15.31 14.8384 15.3805C13.9112 15.9729 12.9222 16.4875 11.876 16.8906C11.8107 16.9158 11.7452 16.9405 11.6794 16.9648L12.9712 20ZM7.03526 12.321C7.05955 12.2552 7.0843 12.1896 7.10947 12.1243C7.51262 11.0782 8.02725 10.0893 8.6197 9.16215C8.69014 9.05192 8.76168 8.94256 8.83427 8.83408L3.99992 11.0292L7.03526 12.321ZM10.3955 16.9648C10.3196 16.9448 10.2444 16.9209 10.1701 16.8933C9.98065 16.8228 9.79758 16.7278 9.62678 16.6082L6.39332 19.8494H7.51077L10.3955 16.9648ZM5.26795 19.8494H4.1505V18.7321L7.92287 14.9599L9.04825 16.0773L5.26795 19.8494ZM7.39189 14.3735C7.2718 14.2019 7.17647 14.0221 7.1059 13.8311C7.07866 13.7574 7.05512 13.682 7.03526 13.6048L4.1505 16.4894V17.6067L7.39189 14.3735Z" fill="#7F7989"/>
</svg>
