<svg width="24" height="24" viewBox="0 0 24 24" fill="none" xmlns="http://www.w3.org/2000/svg">
<path fill-rule="evenodd" clip-rule="evenodd" d="M12 5C7.45455 5 3.57273 7.69533 2 11.5C3.57273 15.3047 7.45455 18 12 18C16.5455 18 20.4273 15.3047 22 11.5C20.4273 7.69533 16.5455 5 12 5ZM12 15.8333C9.49091 15.8333 7.45455 13.892 7.45455 11.5C7.45455 9.108 9.49091 7.16667 12 7.16667C14.5091 7.16667 16.5455 9.108 16.5455 11.5C16.5455 13.892 14.5091 15.8333 12 15.8333ZM9.27273 11.5C9.27273 10.0613 10.4909 8.9 12 8.9C13.5091 8.9 14.7273 10.0613 14.7273 11.5C14.7273 12.9387 13.5091 14.1 12 14.1C10.4909 14.1 9.27273 12.9387 9.27273 11.5Z" fill="#7F7989"/>
</svg>
