<svg width="48" height="48" viewBox="0 0 48 48" fill="none" xmlns="http://www.w3.org/2000/svg">
<g id="ic-create-workflow">
<g id="48x48">
<g id="ic">
<path fill-rule="evenodd" clip-rule="evenodd" d="M10.0059 16.9683C10.0059 15.8637 10.9013 14.9683 12.0059 14.9683H18.0059C19.1104 14.9683 20.0059 15.8637 20.0059 16.9683V22.9683C20.0059 24.0728 19.1104 24.9683 18.0059 24.9683H12.0059C10.9013 24.9683 10.0059 24.0728 10.0059 22.9683V16.9683ZM12.0059 16.4683H18.0059C18.282 16.4683 18.5059 16.6921 18.5059 16.9683V22.9683C18.5059 23.2444 18.282 23.4683 18.0059 23.4683H12.0059C11.7297 23.4683 11.5059 23.2444 11.5059 22.9683V16.9683C11.5059 16.6921 11.7297 16.4683 12.0059 16.4683Z" fill="url(#paint0_linear_250_272316)"/>
<path fill-rule="evenodd" clip-rule="evenodd" d="M27.9944 16.9683C27.9944 15.8637 28.8898 14.9683 29.9944 14.9683H35.9944C37.099 14.9683 37.9944 15.8637 37.9944 16.9683V22.9683C37.9944 24.0728 37.099 24.9683 35.9944 24.9683H29.9944C28.8898 24.9683 27.9944 24.0728 27.9944 22.9683V16.9683ZM29.9944 16.4683H35.9944C36.2705 16.4683 36.4944 16.6921 36.4944 16.9683V22.9683C36.4944 23.2444 36.2705 23.4683 35.9944 23.4683H29.9944C29.7182 23.4683 29.4944 23.2444 29.4944 22.9683V16.9683C29.4944 16.6921 29.7182 16.4683 29.9944 16.4683Z" fill="url(#paint1_linear_250_272316)"/>
<path fill-rule="evenodd" clip-rule="evenodd" d="M29.9944 26.9844C28.8898 26.9844 27.9944 27.8798 27.9944 28.9844V34.9844C27.9944 36.0889 28.8898 36.9844 29.9944 36.9844H35.9944C37.099 36.9844 37.9944 36.0889 37.9944 34.9844V28.9844C37.9944 27.8798 37.099 26.9844 35.9944 26.9844H29.9944ZM35.9944 28.4844H29.9944C29.7182 28.4844 29.4944 28.7082 29.4944 28.9844V34.9844C29.4944 35.2605 29.7182 35.4844 29.9944 35.4844H35.9944C36.2705 35.4844 36.4944 35.2605 36.4944 34.9844V28.9844C36.4944 28.7082 36.2705 28.4844 35.9944 28.4844Z" fill="url(#paint2_linear_250_272316)"/>
<path d="M21.0002 19.2183V20.7183H23.2346V30.9849C23.2346 31.9514 24.0181 32.7349 24.9846 32.7349H26.9846V31.2349H24.9846C24.8465 31.2349 24.7346 31.1229 24.7346 30.9849V20.7183H26.969V19.2183H21.0002Z" fill="url(#paint3_linear_250_272316)"/>
</g>
</g>
</g>
<defs>
<linearGradient id="paint0_linear_250_272316" x1="37.9944" y1="27.4525" x2="10.0059" y2="27.4525" gradientUnits="userSpaceOnUse">
<stop stop-color="#6D5E92"/>
<stop offset="1" stop-color="#272C41"/>
</linearGradient>
<linearGradient id="paint1_linear_250_272316" x1="37.9944" y1="27.4525" x2="10.0059" y2="27.4525" gradientUnits="userSpaceOnUse">
<stop stop-color="#6D5E92"/>
<stop offset="1" stop-color="#272C41"/>
</linearGradient>
<linearGradient id="paint2_linear_250_272316" x1="37.9944" y1="27.4525" x2="10.0059" y2="27.4525" gradientUnits="userSpaceOnUse">
<stop stop-color="#6D5E92"/>
<stop offset="1" stop-color="#272C41"/>
</linearGradient>
<linearGradient id="paint3_linear_250_272316" x1="37.9944" y1="27.4525" x2="10.0059" y2="27.4525" gradientUnits="userSpaceOnUse">
<stop stop-color="#6D5E92"/>
<stop offset="1" stop-color="#272C41"/>
</linearGradient>
</defs>
</svg>
