<svg width="48" height="48" viewBox="0 0 48 48" fill="none" xmlns="http://www.w3.org/2000/svg">
<g id="ic-deploy-model-serving">
<g id="48x48">
<g id="ic">
<path fill-rule="evenodd" clip-rule="evenodd" d="M24.75 12.924C26.0439 12.591 27 11.4164 27 10.0186C27 8.3617 25.6569 7.01855 24 7.01855C22.3431 7.01855 21 8.3617 21 10.0186C21 11.4164 21.9561 12.591 23.25 12.924V14.5939C22.6434 14.7845 22.1364 15.2 21.8268 15.7427L19.8987 15.1588C19.9019 15.1019 19.9036 15.0445 19.9036 14.9868C19.9036 13.33 18.5604 11.9868 16.9036 11.9868C15.2467 11.9868 13.9036 13.33 13.9036 14.9868C13.9036 16.6437 15.2467 17.9868 16.9036 17.9868C17.9719 17.9868 18.9098 17.4284 19.4413 16.5875L21.5109 17.2143C21.5462 17.5938 21.6664 17.9486 21.8522 18.2596L20.3901 20.334C19.9745 20.1163 19.5016 19.9932 19 19.9932C17.3431 19.9932 16 21.3363 16 22.9932C16 24.65 17.3431 25.9932 19 25.9932C20.6569 25.9932 22 24.65 22 22.9932C22 22.3861 21.8197 21.8212 21.5098 21.349L22.9803 19.2628C23.2917 19.402 23.6368 19.4795 24 19.4795C24.3778 19.4795 24.736 19.3957 25.057 19.2457L26.5142 21.3131C26.1896 21.7924 26 22.3707 26 22.9932C26 24.65 27.3431 25.9932 29 25.9932C30.6569 25.9932 32 24.65 32 22.9932C32 21.3363 30.6569 19.9932 29 19.9932C28.5129 19.9932 28.0528 20.1093 27.6461 20.3153L26.1702 18.2214C26.3539 17.9011 26.4687 17.5362 26.4945 17.1469L28.4569 16.5526C28.9843 17.4129 29.9333 17.9868 31.0164 17.9868C32.6732 17.9868 34.0164 16.6437 34.0164 14.9868C34.0164 13.33 32.6732 11.9868 31.0164 11.9868C29.3595 11.9868 28.0164 13.33 28.0164 14.9868C28.0164 15.0307 28.0173 15.0744 28.0192 15.1179L26.1403 15.6869C25.8284 15.1715 25.3356 14.7779 24.75 14.5939V12.924ZM25.5 10.0186C25.5 10.847 24.8284 11.5186 24 11.5186C23.1716 11.5186 22.5 10.847 22.5 10.0186C22.5 9.19013 23.1716 8.51855 24 8.51855C24.8284 8.51855 25.5 9.19013 25.5 10.0186ZM16.9036 16.4868C17.732 16.4868 18.4036 15.8152 18.4036 14.9868C18.4036 14.1584 17.732 13.4868 16.9036 13.4868C16.0751 13.4868 15.4036 14.1584 15.4036 14.9868C15.4036 15.8152 16.0751 16.4868 16.9036 16.4868ZM32.5164 14.9868C32.5164 15.8152 31.8448 16.4868 31.0164 16.4868C30.1879 16.4868 29.5164 15.8152 29.5164 14.9868C29.5164 14.1584 30.1879 13.4868 31.0164 13.4868C31.8448 13.4868 32.5164 14.1584 32.5164 14.9868ZM29 24.4932C29.8284 24.4932 30.5 23.8216 30.5 22.9932C30.5 22.1647 29.8284 21.4932 29 21.4932C28.1716 21.4932 27.5 22.1647 27.5 22.9932C27.5 23.8216 28.1716 24.4932 29 24.4932ZM20.5 22.9932C20.5 23.8216 19.8284 24.4932 19 24.4932C18.1716 24.4932 17.5 23.8216 17.5 22.9932C17.5 22.1647 18.1716 21.4932 19 21.4932C19.8284 21.4932 20.5 22.1647 20.5 22.9932ZM24 17.9795C24.5523 17.9795 25 17.5318 25 16.9795C25 16.4272 24.5523 15.9795 24 15.9795C23.4477 15.9795 23 16.4272 23 16.9795C23 17.5318 23.4477 17.9795 24 17.9795Z" fill="url(#paint0_linear_250_272291)"/>
<path fill-rule="evenodd" clip-rule="evenodd" d="M35.4698 29.1774C36.665 28.5115 38.1736 28.9373 38.8442 30.1298C39.5186 31.3291 39.0899 32.848 37.888 33.5177L28.4644 38.7679L28.4575 38.7716C28.0844 38.9694 27.4907 39.0926 27.0364 39.1672C26.5556 39.246 26.0565 39.2964 25.7939 39.2964C24.8257 39.2964 23.6754 38.9598 22.6353 38.5926C22.1034 38.4049 21.5756 38.1998 21.088 38.0091L20.9775 37.9659C20.5283 37.7901 20.1204 37.6305 19.7617 37.5032C19.6644 37.4686 19.3252 37.3618 18.9304 37.3193C18.5138 37.2744 18.1695 37.316 17.9573 37.4417L17.7857 37.5433L17.9297 37.8429C18.1689 38.3407 17.9592 38.9382 17.4614 39.1774L13.8559 40.9096C13.3581 41.1488 12.7607 40.9391 12.5215 40.4413L9.04662 33.2088C8.80745 32.711 9.01711 32.1135 9.51492 31.8744L13.1204 30.1421C13.6182 29.9029 14.2156 30.1126 14.4548 30.6104L14.6167 30.9475L20.4128 28.1982C20.6472 28.087 20.9034 28.0293 21.1628 28.0293H21.3523C21.5239 28.0293 21.6945 28.0545 21.8587 28.1041L27.8563 29.917C29.0804 30.287 29.7713 31.5808 29.398 32.8039C29.0291 34.0122 27.7583 34.7004 26.5448 34.3489L22.304 33.1207C21.9062 33.0055 21.677 32.5896 21.7923 32.1917C21.9075 31.7938 22.3234 31.5647 22.7213 31.6799L26.9621 32.9081C27.3879 33.0315 27.8339 32.79 27.9633 32.3659C28.0944 31.9367 27.8519 31.4827 27.4223 31.3528L21.4247 29.54C21.4012 29.5329 21.3768 29.5293 21.3523 29.5293H21.1628C21.1258 29.5293 21.0892 29.5375 21.0557 29.5534L15.2663 32.2995L17.1337 36.1861L17.1928 36.1511C17.8244 35.777 18.566 35.7714 19.091 35.8279C19.6375 35.8867 20.0953 36.0299 20.2636 36.0896C20.646 36.2254 21.076 36.3937 21.5182 36.5667L21.6343 36.6121C22.1225 36.803 22.6291 36.9997 23.1346 37.1782C24.1691 37.5433 25.1058 37.7964 25.7939 37.7964C25.9376 37.7964 26.3447 37.7606 26.7936 37.6869C27.2627 37.61 27.6188 37.516 27.7498 37.449L37.1579 32.2073C37.6341 31.942 37.804 31.3402 37.5368 30.8651C37.2711 30.3926 36.6734 30.2239 36.1999 30.4877L31.1463 33.3033C30.7845 33.5049 30.3277 33.375 30.1261 33.0131C29.9245 32.6513 30.0544 32.1945 30.4163 31.9929L35.4698 29.1774ZM10.6152 33.0099L13.657 39.341L16.3611 38.0418L13.3193 31.7107L10.6152 33.0099Z" fill="url(#paint1_linear_250_272291)"/>
</g>
</g>
</g>
<defs>
<linearGradient id="paint0_linear_250_272291" x1="39.1636" y1="26.2925" x2="8.94775" y2="26.2925" gradientUnits="userSpaceOnUse">
<stop stop-color="#6D5E92"/>
<stop offset="1" stop-color="#272C41"/>
</linearGradient>
<linearGradient id="paint1_linear_250_272291" x1="39.1636" y1="26.2925" x2="8.94775" y2="26.2925" gradientUnits="userSpaceOnUse">
<stop stop-color="#6D5E92"/>
<stop offset="1" stop-color="#272C41"/>
</linearGradient>
</defs>
</svg>
