<svg width="48" height="48" viewBox="0 0 48 48" fill="none" xmlns="http://www.w3.org/2000/svg">
<g id="ic-feature-vector">
<g id="48x48">
<g id="ic">
<path fill-rule="evenodd" clip-rule="evenodd" d="M28.9907 36.0399C27.3339 36.0399 25.9907 34.6968 25.9907 33.0399C25.9907 31.3831 27.3339 30.0399 28.9907 30.0399C30.6476 30.0399 31.9907 31.3831 31.9907 33.0399C31.9907 34.6968 30.6476 36.0399 28.9907 36.0399ZM28.9907 34.5399C28.1623 34.5399 27.4907 33.8683 27.4907 33.0399C27.4907 32.2115 28.1623 31.5399 28.9907 31.5399C29.8191 31.5399 30.4907 32.2115 30.4907 33.0399C30.4907 33.8683 29.8191 34.5399 28.9907 34.5399Z" fill="url(#paint0_linear_250_272266)"/>
<path fill-rule="evenodd" clip-rule="evenodd" d="M33.946 10.0399C34.523 10.0399 34.9907 10.5077 34.9907 11.0847V34.0399C34.9907 37.3536 32.3044 40.0399 28.9907 40.0399C25.677 40.0399 22.9907 37.3536 22.9907 34.0399V11.0847C22.9907 10.5077 23.4585 10.0399 24.0355 10.0399H33.946ZM33.4907 19.4525V24.9525H24.4907V19.4525H33.4907ZM24.4907 26.4525H33.4907V34.0399C33.4907 36.5252 31.476 38.5399 28.9907 38.5399C26.5054 38.5399 24.4907 36.5252 24.4907 34.0399V26.4525ZM33.4907 17.9525V11.5399H24.4907V17.9525H33.4907Z" fill="url(#paint1_linear_250_272266)"/>
<path d="M21.9943 10.6889C22.1172 10.6179 22.2486 10.5747 22.3811 10.5574V12.2694L22.35 12.2155L14.5558 16.7155L22.3811 30.2694V33.2694L14.3959 19.4387L9.96371 26.0097L22.3913 34.3922C22.4361 35.1673 22.6281 35.9029 22.9397 36.5715L8.74751 26.9987C8.26965 26.6764 8.14319 26.028 8.46458 25.5498L13.5615 17.9933L13.0291 17.0713C12.7406 16.5716 12.9118 15.9326 13.4115 15.6441L21.9943 10.6889Z" fill="url(#paint2_linear_250_272266)"/>
</g>
</g>
</g>
<defs>
<linearGradient id="paint0_linear_250_272266" x1="34.9907" y1="27.0514" x2="8.28687" y2="27.0514" gradientUnits="userSpaceOnUse">
<stop stop-color="#6D5E92"/>
<stop offset="1" stop-color="#272C41"/>
</linearGradient>
<linearGradient id="paint1_linear_250_272266" x1="34.9907" y1="27.0514" x2="8.28687" y2="27.0514" gradientUnits="userSpaceOnUse">
<stop stop-color="#6D5E92"/>
<stop offset="1" stop-color="#272C41"/>
</linearGradient>
<linearGradient id="paint2_linear_250_272266" x1="34.9907" y1="27.0514" x2="8.28687" y2="27.0514" gradientUnits="userSpaceOnUse">
<stop stop-color="#6D5E92"/>
<stop offset="1" stop-color="#272C41"/>
</linearGradient>
</defs>
</svg>
