<svg width="48" height="48" viewBox="0 0 48 48" fill="none" xmlns="http://www.w3.org/2000/svg">
<g id="ic-run-workflow">
<g id="48x48">
<g id="ic">
<path fill-rule="evenodd" clip-rule="evenodd" d="M10.0212 14.9995C10.0212 13.8949 10.9167 12.9995 12.0212 12.9995H18.0212C19.1258 12.9995 20.0212 13.8949 20.0212 14.9995V20.9995C20.0212 22.1041 19.1258 22.9995 18.0212 22.9995H12.0212C10.9167 22.9995 10.0212 22.1041 10.0212 20.9995V14.9995ZM12.0212 14.4995H18.0212C18.2974 14.4995 18.5212 14.7234 18.5212 14.9995V20.9995C18.5212 21.2757 18.2974 21.4995 18.0212 21.4995H12.0212C11.7451 21.4995 11.5212 21.2757 11.5212 20.9995V14.9995C11.5212 14.7234 11.7451 14.4995 12.0212 14.4995Z" fill="url(#paint0_linear_250_272308)"/>
<path fill-rule="evenodd" clip-rule="evenodd" d="M28.0098 14.9995C28.0098 13.8949 28.9052 12.9995 30.0098 12.9995H36.0098C37.1143 12.9995 38.0098 13.8949 38.0098 14.9995V20.9995C38.0098 22.1041 37.1143 22.9995 36.0098 22.9995H30.0098C28.9052 22.9995 28.0098 22.1041 28.0098 20.9995V14.9995ZM30.0098 14.4995H36.0098C36.2859 14.4995 36.5098 14.7234 36.5098 14.9995V20.9995C36.5098 21.2757 36.2859 21.4995 36.0098 21.4995H30.0098C29.7336 21.4995 29.5098 21.2757 29.5098 20.9995V14.9995C29.5098 14.7234 29.7336 14.4995 30.0098 14.4995Z" fill="url(#paint1_linear_250_272308)"/>
<path d="M36.0098 26.5156H30.0098C29.7336 26.5156 29.5098 26.7395 29.5098 27.0156V33.0156C29.5098 33.2918 29.7336 33.5156 30.0098 33.5156H30.4688C30.3518 33.998 30.2847 34.5 30.2734 35.0156H30.0098C28.9052 35.0156 28.0098 34.1202 28.0098 33.0156V27.0156C28.0098 25.9111 28.9052 25.0156 30.0098 25.0156H36.0098C37.1143 25.0156 38.0098 25.9111 38.0098 27.0156V28.2103C37.7672 28.1849 37.521 28.1719 37.2717 28.1719C37.0143 28.1719 36.76 28.1858 36.5098 28.2129V27.0156C36.5098 26.7395 36.2859 26.5156 36.0098 26.5156Z" fill="url(#paint2_linear_250_272308)"/>
<path d="M23.25 29.0161V18.7495H21.0156V17.2495H26.9844V18.7495H24.75V29.0161C24.75 29.1542 24.8619 29.2661 25 29.2661H27V30.7661H25C24.0335 30.7661 23.25 29.9826 23.25 29.0161Z" fill="url(#paint3_linear_250_272308)"/>
<path d="M39.9001 35.3621C40.1668 35.2082 40.1668 34.8233 39.9001 34.6693L35.8501 32.331C35.5834 32.1771 35.2501 32.3695 35.2501 32.6775V37.354C35.2501 37.6619 35.5834 37.8544 35.8501 37.7004L39.9001 35.3621Z" fill="url(#paint4_linear_250_272308)"/>
<path fill-rule="evenodd" clip-rule="evenodd" d="M43 35.0156C43 38.3293 40.3137 41.0156 37 41.0156C33.6863 41.0156 31 38.3293 31 35.0156C31 31.7019 33.6863 29.0156 37 29.0156C40.3137 29.0156 43 31.7019 43 35.0156ZM41.5 35.0156C41.5 37.5009 39.4853 39.5156 37 39.5156C34.5147 39.5156 32.5 37.5009 32.5 35.0156C32.5 32.5303 34.5147 30.5156 37 30.5156C39.4853 30.5156 41.5 32.5303 41.5 35.0156Z" fill="url(#paint5_linear_250_272308)"/>
</g>
</g>
</g>
<defs>
<linearGradient id="paint0_linear_250_272308" x1="43" y1="28.886" x2="10.0212" y2="28.886" gradientUnits="userSpaceOnUse">
<stop stop-color="#6D5E92"/>
<stop offset="1" stop-color="#272C41"/>
</linearGradient>
<linearGradient id="paint1_linear_250_272308" x1="43" y1="28.886" x2="10.0212" y2="28.886" gradientUnits="userSpaceOnUse">
<stop stop-color="#6D5E92"/>
<stop offset="1" stop-color="#272C41"/>
</linearGradient>
<linearGradient id="paint2_linear_250_272308" x1="43" y1="28.886" x2="10.0212" y2="28.886" gradientUnits="userSpaceOnUse">
<stop stop-color="#6D5E92"/>
<stop offset="1" stop-color="#272C41"/>
</linearGradient>
<linearGradient id="paint3_linear_250_272308" x1="43" y1="28.886" x2="10.0212" y2="28.886" gradientUnits="userSpaceOnUse">
<stop stop-color="#6D5E92"/>
<stop offset="1" stop-color="#272C41"/>
</linearGradient>
<linearGradient id="paint4_linear_250_272308" x1="43" y1="28.886" x2="10.0212" y2="28.886" gradientUnits="userSpaceOnUse">
<stop stop-color="#6D5E92"/>
<stop offset="1" stop-color="#272C41"/>
</linearGradient>
<linearGradient id="paint5_linear_250_272308" x1="43" y1="28.886" x2="10.0212" y2="28.886" gradientUnits="userSpaceOnUse">
<stop stop-color="#6D5E92"/>
<stop offset="1" stop-color="#272C41"/>
</linearGradient>
</defs>
</svg>
