<svg width="48" height="48" viewBox="0 0 48 48" fill="none" xmlns="http://www.w3.org/2000/svg">
<g id="ic-register-model">
<g id="48x48">
<g id="ic">
<path fill-rule="evenodd" clip-rule="evenodd" d="M24.75 16.9611C26.6006 16.61 28 14.984 28 13.0312C28 10.8221 26.2091 9.03125 24 9.03125C21.7909 9.03125 20 10.8221 20 13.0312C20 14.984 21.3994 16.61 23.25 16.9611V19.0836C22.2904 19.325 21.5144 20.0288 21.1728 20.9443L18.9901 20.2832C18.9967 20.1897 19 20.0952 19 20C19 17.7909 17.2091 16 15 16C12.7909 16 11 17.7909 11 20C11 22.2091 12.7909 24 15 24C16.5879 24 17.9596 23.0748 18.6056 21.7341L21.0214 22.4657C21.0852 22.8691 21.2295 23.2458 21.4373 23.5789L19.6777 26.0752C19.4574 26.0376 19.231 26.0181 19 26.0181C16.7909 26.0181 15 27.8089 15 30.0181C15 32.2272 16.7909 34.0181 19 34.0181C21.2091 34.0181 23 32.2272 23 30.0181C23 28.5891 22.2507 27.3351 21.1235 26.6276L22.5374 24.6217C22.9665 24.8584 23.4597 24.993 23.9844 24.993C24.5218 24.993 25.0262 24.8517 25.4625 24.6042L26.8937 26.6348C25.7729 27.3435 25.0286 28.5939 25.0286 30.0181C25.0286 32.2272 26.8194 34.0181 29.0286 34.0181C29.052 34.0181 29.0755 34.0179 29.0989 34.0175V32.5171C29.0755 32.5177 29.0521 32.5181 29.0286 32.5181C27.6479 32.5181 26.5286 31.3988 26.5286 30.0181C26.5286 28.6374 27.6479 27.5181 29.0286 27.5181C29.2517 27.5181 29.4679 27.5473 29.6738 27.6021L31.2697 26.7044C30.6304 26.2712 29.859 26.0181 29.0286 26.0181C28.7925 26.0181 28.5612 26.0385 28.3363 26.0778L26.5517 23.5459C26.7469 23.2238 26.8833 22.8621 26.9458 22.4756L29.4 21.7324C30.036 23.0993 31.4216 24.0469 33.0286 24.0469C35.2377 24.0469 37.0286 22.256 37.0286 20.0469C37.0286 17.8377 35.2377 16.0469 33.0286 16.0469C30.8194 16.0469 29.0286 17.8377 29.0286 20.0469C29.0286 20.1236 29.0307 20.1999 29.035 20.2756L26.7991 20.9528C26.4628 20.0431 25.6982 19.3412 24.75 19.0916V16.9611ZM26.5 13.0312C26.5 14.412 25.3807 15.5312 24 15.5312C22.6193 15.5312 21.5 14.412 21.5 13.0312C21.5 11.6505 22.6193 10.5312 24 10.5312C25.3807 10.5312 26.5 11.6505 26.5 13.0312ZM15 22.5C16.3807 22.5 17.5 21.3807 17.5 20C17.5 18.6193 16.3807 17.5 15 17.5C13.6193 17.5 12.5 18.6193 12.5 20C12.5 21.3807 13.6193 22.5 15 22.5ZM35.5286 20.0469C35.5286 21.4276 34.4093 22.5469 33.0286 22.5469C31.6479 22.5469 30.5286 21.4276 30.5286 20.0469C30.5286 18.6662 31.6479 17.5469 33.0286 17.5469C34.4093 17.5469 35.5286 18.6662 35.5286 20.0469ZM19 32.5181C20.3807 32.5181 21.5 31.3988 21.5 30.0181C21.5 28.6374 20.3807 27.5181 19 27.5181C17.6193 27.5181 16.5 28.6374 16.5 30.0181C16.5 31.3988 17.6193 32.5181 19 32.5181ZM23.9844 23.493C24.8128 23.493 25.4844 22.8215 25.4844 21.993C25.4844 21.1646 24.8128 20.493 23.9844 20.493C23.1559 20.493 22.4844 21.1646 22.4844 21.993C22.4844 22.8215 23.1559 23.493 23.9844 23.493Z" fill="url(#paint0_linear_250_272275)"/>
<path fill-rule="evenodd" clip-rule="evenodd" d="M36.5713 25.0813C36.2669 24.9101 35.8952 24.9101 35.5908 25.0813L30.5908 27.8938C30.2759 28.0709 30.0811 28.4041 30.0811 28.7654V34.3457C30.0811 34.707 30.2759 35.0401 30.5908 35.2173L35.5908 38.0298C35.8952 38.201 36.2669 38.201 36.5713 38.0298L41.5713 35.2173C41.8862 35.0401 42.0811 34.707 42.0811 34.3457V28.7654C42.0811 28.4041 41.8862 28.0709 41.5713 27.8938L36.5713 25.0813ZM36.0811 26.5266L31.6241 29.0336C31.6889 29.0495 31.7526 29.0743 31.8136 29.1087L36.0411 31.4866C36.0542 31.494 36.067 31.5017 36.0795 31.5097L40.4289 29.0632C40.4574 29.0472 40.4865 29.0332 40.5161 29.0213L36.0811 26.5266ZM31.5811 34.0533V30.6989L35.2561 32.7661V36.1205L31.5811 34.0533ZM36.9062 32.7658V36.1204L40.5811 34.0533V30.6987L36.9062 32.7658Z" fill="url(#paint1_linear_250_272275)"/>
</g>
</g>
</g>
<defs>
<linearGradient id="paint0_linear_250_272275" x1="42.0811" y1="25.5477" x2="11" y2="25.5477" gradientUnits="userSpaceOnUse">
<stop stop-color="#6D5E92"/>
<stop offset="1" stop-color="#272C41"/>
</linearGradient>
<linearGradient id="paint1_linear_250_272275" x1="42.0811" y1="25.5477" x2="11" y2="25.5477" gradientUnits="userSpaceOnUse">
<stop stop-color="#6D5E92"/>
<stop offset="1" stop-color="#272C41"/>
</linearGradient>
</defs>
</svg>
