<svg width="48" height="49" viewBox="0 0 48 49" fill="none" xmlns="http://www.w3.org/2000/svg">
<g id="ic-register-dataset">
<g id="48x48">
<g id="ic">
<path fill-rule="evenodd" clip-rule="evenodd" d="M35.5 25.4023L37 26.2461V16.9762C37 15.3193 35.6569 13.9762 34 13.9762H14C12.3431 13.9762 11 15.3193 11 16.9762V32.9762C11 34.633 12.3431 35.9762 14 35.9762H26.9966V34.4762H20.355V20.5074H27.645V28.2597L29.145 27.416V20.5074H35.5V25.4023ZM14 15.4762H34C34.8284 15.4762 35.5 16.1478 35.5 16.9762V19.0074H12.5V16.9762C12.5 16.1478 13.1716 15.4762 14 15.4762ZM12.5 20.5074V32.9762C12.5 33.8046 13.1716 34.4762 14 34.4762H18.855V20.5074H12.5Z" fill="url(#paint0_linear_250_272242)"/>
<path fill-rule="evenodd" clip-rule="evenodd" d="M34.4463 25.9334C34.1419 25.7621 33.7702 25.7621 33.4658 25.9334L28.4658 28.7459C28.1509 28.923 27.9561 29.2562 27.9561 29.6174V35.1977C27.9561 35.559 28.1509 35.8922 28.4658 36.0693L33.4658 38.8818C33.7702 39.053 34.1419 39.053 34.4463 38.8818L39.4463 36.0693C39.7612 35.8922 39.9561 35.559 39.9561 35.1977V29.6174C39.9561 29.2562 39.7612 28.923 39.4463 28.7459L34.4463 25.9334ZM33.9561 27.3786L29.4991 29.8857C29.5639 29.9015 29.6276 29.9264 29.6886 29.9607L33.9161 32.3387C33.9292 32.346 33.942 32.3538 33.9545 32.3618L38.3039 29.9153C38.3324 29.8993 38.3615 29.8853 38.3911 29.8733L33.9561 27.3786ZM29.4561 34.9053V31.5509L33.1311 33.6181V36.9725L29.4561 34.9053ZM34.7812 33.6178V36.9724L38.4561 34.9053V31.5507L34.7812 33.6178Z" fill="url(#paint1_linear_250_272242)"/>
</g>
</g>
</g>
<defs>
<linearGradient id="paint0_linear_250_272242" x1="39.9561" y1="28.1717" x2="11" y2="28.1717" gradientUnits="userSpaceOnUse">
<stop stop-color="#6D5E92"/>
<stop offset="1" stop-color="#272C41"/>
</linearGradient>
<linearGradient id="paint1_linear_250_272242" x1="39.9561" y1="28.1717" x2="11" y2="28.1717" gradientUnits="userSpaceOnUse">
<stop stop-color="#6D5E92"/>
<stop offset="1" stop-color="#272C41"/>
</linearGradient>
</defs>
</svg>
