<?xml version="1.0" encoding="UTF-8"?> <svg xmlns="http://www.w3.org/2000/svg" width="123" height="31" viewBox="0 0 123 31" fill="none"><g clip-path="url(#clip0)"><path d="M0.699902 29.5C0.499902 29.3 0.399902 29.1 0.399902 28.8V1.40002C0.399902 1.10002 0.499902 0.900024 0.699902 0.700024C0.899902 0.500024 1.0999 0.400024 1.3999 0.400024H2.3999C2.7999 0.400024 3.0999 0.600024 3.2999 0.900024L12.7999 19.4L22.3999 1.00002C22.5999 0.600024 22.8999 0.500024 23.2999 0.500024H24.2999C24.5999 0.500024 24.7999 0.600024 24.9999 0.800024C25.1999 1.00002 25.2999 1.20002 25.2999 1.50002V28.9C25.2999 29.2 25.1999 29.4 24.9999 29.6C24.7999 29.8 24.5999 29.9 24.2999 29.9H23.4999C23.1999 29.9 22.9999 29.8 22.7999 29.6C22.5999 29.4 22.4999 29.2 22.4999 28.9V6.20002L14.4999 21.9C14.1999 22.5 13.7999 22.7 13.1999 22.7H12.2999C11.6999 22.7 11.2999 22.4 10.9999 21.9L2.9999 6.20002V28.9C2.9999 29.2 2.8999 29.4 2.6999 29.6C2.4999 29.8 2.2999 29.9 1.9999 29.9H1.3999C1.0999 29.8 0.899902 29.7 0.699902 29.5Z" fill="#00B6ED" stroke="#00B6ED" stroke-width="0.9203" stroke-miterlimit="10" stroke-linecap="round" stroke-linejoin="round"></path><path d="M32.5 29.5C32.3 29.3 32.2 29.1 32.2 28.8V1.40002C32.2 1.10002 32.3 0.900024 32.5 0.700024C32.7 0.500024 32.9 0.400024 33.2 0.400024H34C34.3 0.400024 34.5 0.500024 34.7 0.700024C34.9 0.900024 35 1.10002 35 1.40002V27.3H49.4C49.7 27.3 49.8999 27.4 50.0999 27.6C50.2999 27.8 50.4 28 50.4 28.3V28.9C50.4 29.2 50.2999 29.4 50.0999 29.6C49.8999 29.8 49.7 29.9 49.4 29.9H33.2C32.9 29.8 32.7 29.7 32.5 29.5Z" fill="#00B6ED" stroke="#00B6ED" stroke-width="0.9203" stroke-miterlimit="10" stroke-linecap="round" stroke-linejoin="round"></path><path d="M54.5998 29.5C54.3998 29.3 54.2998 29.1 54.2998 28.8V1.40002C54.2998 1.10002 54.3998 0.900024 54.5998 0.700024C54.7998 0.500024 54.9998 0.400024 55.2998 0.400024H65.0998C68.0998 0.400024 70.4998 1.10002 72.1998 2.50002C73.8998 3.90002 74.7998 6.00002 74.7998 8.80002C74.7998 11 74.2998 12.8 73.1998 14.1C72.0998 15.5 70.4998 16.4 68.4998 16.8L75.1998 28.3C75.2998 28.5 75.2998 28.6 75.2998 28.8C75.2998 29 75.1998 29.2 74.9998 29.4C74.7998 29.6 74.5998 29.7 74.3998 29.7H73.8998C73.4998 29.7 73.1998 29.6 72.9998 29.4C72.7998 29.2 72.5998 28.9 72.3998 28.5L65.6998 17.2H56.9998V28.7C56.9998 29 56.8998 29.2 56.6998 29.4C56.4998 29.6 56.2998 29.7 55.9998 29.7H55.1998C54.9998 29.8 54.7998 29.7 54.5998 29.5ZM64.8998 14.9C67.2998 14.9 69.0998 14.4 70.2998 13.4C71.4998 12.4 72.0998 10.9 72.0998 8.90002C72.0998 6.90002 71.4998 5.40002 70.2998 4.40002C69.0998 3.40002 67.2998 2.90002 64.8998 2.90002H56.9998V14.8H64.8998V14.9Z" fill="#00B6ED" stroke="#00B6ED" stroke-width="0.9203" stroke-miterlimit="10" stroke-linecap="round" stroke-linejoin="round"></path><path d="M81.6999 27.6C80.2999 25.9 79.5999 23.6 79.5999 20.8V8.9C79.5999 8.6 79.6999 8.4 79.8999 8.2C79.9999 8.1 80.1999 8 80.4999 8H81.1999C81.4999 8 81.6999 8.1 81.8999 8.3C82.0999 8.5 82.1999 8.7 82.1999 9V20.7C82.1999 25.5 84.2999 27.9 88.3999 27.9C90.3999 27.9 91.9999 27.3 93.1999 26C94.3999 24.7 94.9999 23 94.9999 20.7V8.9C94.9999 8.6 95.0999 8.4 95.2999 8.2C95.3999 8.1 95.5999 8 95.8999 8H96.5999C96.8999 8 97.0999 8.1 97.2999 8.3C97.4999 8.5 97.5999 8.7 97.5999 9V28.9C97.5999 29.2 97.4999 29.4 97.2999 29.6C97.0999 29.8 96.8999 29.9 96.5999 29.9H95.8999C95.5999 29.9 95.3999 29.8 95.1999 29.6C94.9999 29.4 94.9999 29.1 94.9999 28.8V26.8C94.1999 27.9 93.1999 28.7 92.0999 29.3C90.9999 29.9 89.6999 30.1 87.9999 30.1C85.1999 30.2 83.1999 29.3 81.6999 27.6Z" fill="#00B6ED" stroke="#00B6ED" stroke-width="0.9203" stroke-miterlimit="10" stroke-linecap="round" stroke-linejoin="round"></path><path d="M103.7 29.5C103.5 29.3 103.4 29.1 103.4 28.8V8.90004C103.4 8.60004 103.5 8.40004 103.7 8.20004C103.9 8.00004 104.1 7.90004 104.4 7.90004H105.1C105.4 7.90004 105.6 8.00004 105.8 8.20004C106 8.40004 106.1 8.60004 106.1 8.90004V10.9C106.9 9.80004 107.9 9.00004 109 8.40004C110.1 7.80004 111.5 7.60004 113.2 7.60004C115.9 7.60004 118 8.50004 119.5 10.2C121 11.9 121.7 14.2 121.7 17V28.9C121.7 29.2 121.6 29.4 121.4 29.6C121.2 29.8 121 29.9 120.7 29.9H120C119.7 29.9 119.5 29.8 119.3 29.6C119.1 29.4 119 29.2 119 28.9V17.2C119 14.9 118.4 13.2 117.3 11.9C116.2 10.6 114.6 10 112.5 10C110.5 10 108.9 10.6 107.7 11.9C106.5 13.2 105.9 14.9 105.9 17.2V28.9C105.9 29.2 105.8 29.4 105.6 29.6C105.4 29.8 105.2 29.9 104.9 29.9H104.2C104.1 29.8 103.9 29.7 103.7 29.5Z" fill="#00B6ED" stroke="#00B6ED" stroke-width="0.9203" stroke-miterlimit="10" stroke-linecap="round" stroke-linejoin="round"></path></g><defs><clipPath id="clip0"><rect width="122.1" height="30.6" fill="white"></rect></clipPath></defs></svg> 