<svg width="24" height="24" viewBox="0 0 24 24" fill="none" xmlns="http://www.w3.org/2000/svg">
<path fill-rule="evenodd" clip-rule="evenodd" d="M5 21C4.45 21 3.979 20.8043 3.587 20.413C3.19567 20.021 3 19.55 3 19V5C3 4.45 3.19567 3.979 3.587 3.587C3.979 3.19567 4.45 3 5 3H19C19.55 3 20.021 3.19567 20.413 3.587C20.8043 3.979 21 4.45 21 5V19C21 19.55 20.8043 20.021 20.413 20.413C20.021 20.8043 19.55 21 19 21H5ZM5 19H19V12.9999H16.3636C16.1567 12.9999 15.9661 12.9413 15.8037 12.8177C15.6483 12.6999 15.5346 12.5428 15.4591 12.3561L15.4563 12.349L14.1822 8.89786L11.0686 17.3614C10.9669 17.616 10.8055 17.828 10.5872 17.9931C10.3614 18.1638 10.1023 18.2499 9.81818 18.2499C9.53405 18.2499 9.27492 18.1638 9.0492 17.9931C8.8309 17.828 8.6695 17.616 8.56782 17.3614L8.56547 17.3555L6.95324 12.9999H5V19ZM5 10.9999H7.63636C7.84328 10.9999 8.0339 11.0585 8.19631 11.1821C8.35165 11.2999 8.46544 11.457 8.54089 11.6438L8.54373 11.6508L9.81776 15.102L12.9314 6.63842C13.0331 6.38377 13.1945 6.17185 13.4128 6.00676C13.6386 5.83606 13.8977 5.74991 14.1818 5.74991C14.4659 5.74991 14.7251 5.83606 14.9508 6.00676C15.1691 6.17185 15.3305 6.38381 15.4322 6.63845L15.4345 6.64434L17.0468 10.9999H19V5H5V10.9999Z" fill="#7F7989"/>
</svg>
