<svg width="24" height="24" viewBox="0 0 24 24" fill="none" xmlns="http://www.w3.org/2000/svg">
<path d="M8.83115 7.23777C8.63381 7.10591 8.4018 7.03553 8.16447 7.03553C7.84621 7.03553 7.54098 7.16196 7.31594 7.38701C7.09089 7.61205 6.96447 7.91727 6.96447 8.23553C6.96447 8.47287 7.03485 8.70488 7.1667 8.90222C7.29856 9.09956 7.48597 9.25336 7.70525 9.34419C7.92452 9.43501 8.1658 9.45878 8.39857 9.41248C8.63135 9.36617 8.84517 9.25189 9.01299 9.08406C9.18082 8.91624 9.29511 8.70242 9.34141 8.46964C9.38771 8.23687 9.36395 7.99559 9.27312 7.77631C9.1823 7.55704 9.02849 7.36963 8.83115 7.23777Z" fill="#7F7989"/>
<path fill-rule="evenodd" clip-rule="evenodd" d="M6 4C4.89543 4 4 4.89543 4 6V11.6569C4 12.1873 4.21071 12.696 4.58579 13.0711L11.364 19.8492C12.145 20.6303 13.4113 20.6303 14.1924 19.8492L19.8492 14.1924C20.6303 13.4113 20.6303 12.145 19.8492 11.364L13.0711 4.58579C12.696 4.21071 12.1873 4 11.6569 4H6ZM6 11.6569V6L11.6569 6L18.435 12.7782L12.7782 18.435L6 11.6569Z" fill="#7F7989"/>
</svg>
