<svg width="24" height="24" viewBox="0 0 24 24" fill="none" xmlns="http://www.w3.org/2000/svg">
<path d="M16 17C16.56 17 17 17.44 17 18C17 18.56 16.56 19 16 19C15.44 19 15 18.56 15 18C15 17.44 15.44 17 16 17ZM16 14C13.27 14 10.94 15.66 10 18C10.94 20.34 13.27 22 16 22C18.73 22 21.06 20.34 22 18C21.06 15.66 18.73 14 16 14ZM16 20.5C15.337 20.5 14.7011 20.2366 14.2322 19.7678C13.7634 19.2989 13.5 18.663 13.5 18C13.5 17.337 13.7634 16.7011 14.2322 16.2322C14.7011 15.7634 15.337 15.5 16 15.5C16.663 15.5 17.2989 15.7634 17.7678 16.2322C18.2366 16.7011 18.5 17.337 18.5 18C18.5 18.663 18.2366 19.2989 17.7678 19.7678C17.2989 20.2366 16.663 20.5 16 20.5ZM8.27 19H5V3H12V8H17V12.07C17.7 12.15 18.36 12.32 19 12.56V7L13 1H5C4.46957 1 3.96086 1.21071 3.58579 1.58579C3.21071 1.96086 3 2.46957 3 3V19C3 19.5304 3.21071 20.0391 3.58579 20.4142C3.96086 20.7893 4.46957 21 5 21H9.5C9 20.41 8.59 19.73 8.27 19Z" fill="#7F7989"/>
</svg>
