<svg width="24" height="24" viewBox="0 0 24 24" fill="none" xmlns="http://www.w3.org/2000/svg">
<g id="ic-realtime-functions">
<g id="ic">
<path d="M12 4C12.2833 4 12.521 4.09567 12.713 4.287C12.9043 4.479 13 4.71667 13 5C13 5.28333 12.9043 5.521 12.713 5.713C12.521 5.90433 12.2833 6 12 6C11.7167 6 11.4793 5.90433 11.288 5.713C11.096 5.521 11 5.28333 11 5C11 4.71667 11.096 4.479 11.288 4.287C11.4793 4.09567 11.7167 4 12 4ZM20 12C20 12.2833 19.904 12.5207 19.712 12.712C19.5207 12.904 19.2833 13 19 13C18.7167 13 18.4793 12.904 18.288 12.712C18.096 12.5207 18 12.2833 18 12C18 11.7167 18.096 11.479 18.288 11.287C18.4793 11.0957 18.7167 11 19 11C19.2833 11 19.5207 11.0957 19.712 11.287C19.904 11.479 20 11.7167 20 12ZM12 18C12.2833 18 12.521 18.096 12.713 18.288C12.9043 18.4793 13 18.7167 13 19C13 19.2833 12.9043 19.5207 12.713 19.712C12.521 19.904 12.2833 20 12 20C11.7167 20 11.4793 19.904 11.288 19.712C11.096 19.5207 11 19.2833 11 19C11 18.7167 11.096 18.4793 11.288 18.288C11.4793 18.096 11.7167 18 12 18ZM6 12C6 12.2833 5.90433 12.5207 5.713 12.712C5.521 12.904 5.28333 13 5 13C4.71667 13 4.479 12.904 4.287 12.712C4.09567 12.5207 4 12.2833 4 12C4 11.7167 4.09567 11.479 4.287 11.287C4.479 11.0957 4.71667 11 5 11C5.28333 11 5.521 11.0957 5.713 11.287C5.90433 11.479 6 11.7167 6 12ZM12 22C10.6167 22 9.31667 21.7373 8.1 21.212C6.88333 20.6873 5.825 19.975 4.925 19.075C4.025 18.175 3.31267 17.1167 2.788 15.9C2.26267 14.6833 2 13.3833 2 12C2 10.6167 2.26267 9.31667 2.788 8.1C3.31267 6.88333 4.025 5.825 4.925 4.925C5.825 4.025 6.88333 3.31233 8.1 2.787C9.31667 2.26233 10.6167 2 12 2C13.3833 2 14.6833 2.26233 15.9 2.787C17.1167 3.31233 18.175 4.025 19.075 4.925C19.975 5.825 20.6873 6.88333 21.212 8.1C21.7373 9.31667 22 10.6167 22 12C22 13.3833 21.7373 14.6833 21.212 15.9C20.6873 17.1167 19.975 18.175 19.075 19.075C18.175 19.975 17.1167 20.6873 15.9 21.212C14.6833 21.7373 13.3833 22 12 22ZM12 20C14.2333 20 16.125 19.225 17.675 17.675C19.225 16.125 20 14.2333 20 12C20 9.76667 19.225 7.875 17.675 6.325C16.125 4.775 14.2333 4 12 4C9.76667 4 7.875 4.775 6.325 6.325C4.775 7.875 4 9.76667 4 12C4 14.2333 4.775 16.125 6.325 17.675C7.875 19.225 9.76667 20 12 20Z" fill="#8C9DC5"/>
<path d="M8.42502 11.625L10.6 13.8L15.55 8.85C15.7334 8.66667 15.9667 8.575 16.25 8.575C16.5334 8.575 16.7667 8.66667 16.95 8.85C17.1334 9.03333 17.2294 9.26233 17.238 9.537C17.246 9.81233 17.1584 10.0417 16.975 10.225L11.3 15.9C11.1167 16.0833 10.8834 16.175 10.6 16.175C10.3167 16.175 10.0834 16.0833 9.90002 15.9L7.05002 13.05C6.86669 12.8667 6.77502 12.6333 6.77502 12.35C6.77502 12.0667 6.86669 11.8333 7.05002 11.65C7.23336 11.4667 7.46269 11.371 7.73802 11.363C8.01269 11.3543 8.24169 11.4417 8.42502 11.625Z" fill="#8C9DC5"/>
</g>
</g>
</svg>
