<svg width="24" height="24" viewBox="0 0 24 24" fill="none" xmlns="http://www.w3.org/2000/svg">
<g id="ic-models">
<path id="ic" fill-rule="evenodd" clip-rule="evenodd" d="M11.1668 8.26606C9.81026 7.89966 8.81211 6.66039 8.81211 5.188C8.81211 3.42727 10.2395 1.99991 12.0002 1.99991C13.7609 1.99991 15.1883 3.42727 15.1883 5.188C15.1883 6.66043 14.1901 7.89973 12.8335 8.26609V11.8724L15.6352 10.962C15.5028 9.51217 16.3829 8.11176 17.8259 7.6429C19.5004 7.0988 21.299 8.01522 21.8431 9.68977C22.3872 11.3643 21.4708 13.1629 19.7962 13.707C18.4392 14.1479 17.0008 13.6297 16.2145 12.5262L13.4458 13.4258L15.226 15.876C16.5584 15.319 18.1467 15.726 19.0325 16.9452C20.0674 18.3697 19.7517 20.3634 18.3272 21.3983C16.9027 22.4333 14.909 22.1175 13.8741 20.693C13.0292 19.5302 13.0845 17.988 13.9082 16.8977L12.0182 14.2963L10.257 16.7204C11.2161 17.8155 11.3273 19.4657 10.4355 20.6931C9.40054 22.1176 7.40681 22.4333 5.98235 21.3984C4.55789 20.3635 4.24211 18.3697 5.27704 16.9453C6.11575 15.7909 7.58417 15.3646 8.86898 15.7953L10.738 13.2228L7.92697 12.3094C7.18187 13.5602 5.64678 14.1758 4.20378 13.707C2.52922 13.1629 1.6128 11.3643 2.1569 9.68975C2.70099 8.0152 4.49957 7.09878 6.17412 7.64287C7.53113 8.08379 8.39027 9.34852 8.37776 10.7035L11.1668 11.6097V8.26606ZM13.5216 5.188C13.5216 6.02826 12.8405 6.70944 12.0002 6.70944C11.1599 6.70944 10.4788 6.02826 10.4788 5.188C10.4788 4.34773 11.1599 3.66655 12.0002 3.66655C12.8405 3.66655 13.5216 4.34773 13.5216 5.188ZM6.63593 11.1451C6.89558 10.3459 6.45824 9.4876 5.6591 9.22795C4.85996 8.96829 4.00163 9.40563 3.74197 10.2048C3.48231 11.0039 3.91965 11.8622 4.7188 12.1219C5.51794 12.3816 6.37627 11.9442 6.63593 11.1451ZM8.75054 17.5883C8.07075 17.0944 7.11928 17.2451 6.62539 17.9249C6.13149 18.6047 6.28219 19.5562 6.96198 20.0501C7.64177 20.544 8.59323 20.3933 9.08713 19.7135C9.58103 19.0337 9.43033 18.0822 8.75054 17.5883ZM15.559 17.5883C14.8792 18.0822 14.7285 19.0336 15.2224 19.7134C15.7163 20.3932 16.6678 20.5439 17.3476 20.05C18.0274 19.5561 18.1781 18.6046 17.6842 17.9248C17.1903 17.2451 16.2388 17.0944 15.559 17.5883ZM17.3641 11.1451C17.6237 11.9442 18.4821 12.3816 19.2812 12.1219C20.0803 11.8623 20.5177 11.0039 20.258 10.2048C19.9984 9.40565 19.14 8.96831 18.3409 9.22797C17.5418 9.48763 17.1044 10.346 17.3641 11.1451Z" fill="#8C9DC5"/>
</g>
</svg>
