<svg width="24" height="24" viewBox="0 0 24 24" fill="none" xmlns="http://www.w3.org/2000/svg">
<g id="ic-feature-store">
<g id="ic">
<path d="M2 4C2 2.4 3.33333 2 4 2H8V4H5C4.2 4 4 4.33333 4 4.5V17C4 19 5.66667 20 6.5 20H19.5C19.9 20 20 19.6667 20 19.5V15C20 14.6 19.6667 14.5 19.5 14.5H16V12.5H20C21.6 12.5 22 14 22 15V20C22 21.6 20.6667 22 20 22H7C3 22 2 18.6667 2 17V4Z" fill="#8C9DC5"/>
<path d="M8.99999 4H5.99996V2H8.99999C11 2 11.5 3.33333 11.5 4V16.4012C13.3333 14.5679 17.357 10.4 17.757 10C17.757 10 18.0461 9.80469 17.757 9.5L14.257 6L15.9961 4.92188C16.6628 5.58854 18.057 6.95132 19.257 8.15132C20.8609 9.75527 19.757 10.8333 19.257 11.5L8.75697 22H7L4.99999 20H6.5C8.5 20 9.49999 18.3333 9.49999 17.5V4.5C9.49999 4.1 9.16666 4 8.99999 4Z" fill="#8C9DC5"/>
<path d="M14.0243 6.0758L11.3597 8.77203L10.6301 6.6362C10.683 6.58685 11.0996 6.18152 12.343 4.95501C13.5865 3.72849 14.6902 3.83423 15.5468 4.51092L16.0234 4.94531C15.5723 5.43874 14.6375 6.38031 14.426 6.16038C14.2145 5.94045 14.0701 6.01236 14.0243 6.0758Z" fill="#8C9DC5"/>
<path d="M5.75635 17.2487C5.75635 16.6964 6.20406 16.2487 6.75635 16.2487C7.30863 16.2487 7.75635 16.6964 7.75635 17.2487C7.75635 17.801 7.30863 18.2487 6.75635 18.2487C6.20406 18.2487 5.75635 17.801 5.75635 17.2487Z" fill="#8C9DC5"/>
</g>
</g>
</svg>
