<svg width="24" height="24" viewBox="0 0 24 24" fill="none" xmlns="http://www.w3.org/2000/svg">
<g id="ic-project-monitoring">
<g id="Vector">
<path d="M5 21C4.45 21 3.979 20.8043 3.587 20.413C3.19567 20.021 3 19.55 3 19V5C3 4.45 3.19567 3.979 3.587 3.587C3.979 3.19567 4.45 3 5 3H19C19.55 3 20.021 3.19567 20.413 3.587C20.8043 3.979 21 4.45 21 5V19C21 19.55 20.8043 20.021 20.413 20.413C20.021 20.8043 19.55 21 19 21H5ZM5 19H19V5H5V19Z" fill="#8C9DC5"/>
<path d="M9.81818 17.9999C9.58788 17.9999 9.38182 17.9312 9.2 17.7937C9.01818 17.6562 8.88485 17.4812 8.8 17.2687L7.12727 12.7499H4.72727C4.52121 12.7499 4.34861 12.6779 4.20945 12.5339C4.06982 12.3904 4 12.2124 4 11.9999C4 11.7874 4.06982 11.6092 4.20945 11.4652C4.34861 11.3217 4.52121 11.2499 4.72727 11.2499H7.63636C7.79394 11.2499 7.93018 11.2937 8.04509 11.3812C8.16048 11.4687 8.24849 11.5874 8.30909 11.7374L9.81818 15.8249L13.1636 6.73116C13.2485 6.51866 13.3818 6.34366 13.5636 6.20616C13.7455 6.06866 13.9515 5.99991 14.1818 5.99991C14.4121 5.99991 14.6182 6.06866 14.8 6.20616C14.9818 6.34366 15.1152 6.51866 15.2 6.73116L16.8727 11.2499H19.2727C19.4788 11.2499 19.6514 11.3217 19.7905 11.4652C19.9302 11.6092 20 11.7874 20 11.9999C20 12.2124 19.9302 12.3904 19.7905 12.5339C19.6514 12.6779 19.4788 12.7499 19.2727 12.7499H16.3636C16.2061 12.7499 16.0698 12.7062 15.9549 12.6187C15.8395 12.5312 15.7515 12.4124 15.6909 12.2624L14.1818 8.17491L10.8364 17.2687C10.7515 17.4812 10.6182 17.6562 10.4364 17.7937C10.2545 17.9312 10.0485 17.9999 9.81818 17.9999Z" fill="#8C9DC5"/>
<path fill-rule="evenodd" clip-rule="evenodd" d="M14.1818 6.24991C14.0053 6.24991 13.8524 6.30126 13.7144 6.40556C13.57 6.51481 13.4651 6.65187 13.397 6.82083L9.8186 16.5479L8.07597 11.8278C8.03036 11.7163 7.96867 11.637 7.89404 11.5804C7.82668 11.5291 7.7445 11.4999 7.63636 11.4999H4.72727C4.5865 11.4999 4.47939 11.5459 4.38893 11.6392C4.29741 11.7336 4.25 11.8481 4.25 11.9999C4.25 12.1517 4.29739 12.2658 4.38863 12.3596C4.47915 12.4532 4.58679 12.4999 4.72727 12.4999H7.30131L9.03329 17.1787C9.10134 17.3478 9.20626 17.485 9.3508 17.5943C9.48872 17.6986 9.64171 17.7499 9.81818 17.7499C9.99466 17.7499 10.1476 17.6986 10.2856 17.5943C10.43 17.485 10.5349 17.3479 10.603 17.179L14.1814 7.45196L15.924 12.172C15.9696 12.2835 16.0313 12.3629 16.106 12.4195C16.1733 12.4707 16.2555 12.4999 16.3636 12.4999H19.2727C19.4132 12.4999 19.5202 12.4539 19.6108 12.3602C19.702 12.2664 19.75 12.1517 19.75 11.9999C19.75 11.8481 19.7026 11.7336 19.6111 11.6392C19.5206 11.5459 19.4135 11.4999 19.2727 11.4999H16.6987L14.9667 6.82106C14.8986 6.652 14.7937 6.51486 14.6492 6.40556C14.5113 6.30126 14.3583 6.24991 14.1818 6.24991ZM13.4128 6.00676C13.6386 5.83606 13.8977 5.74991 14.1818 5.74991C14.4659 5.74991 14.7251 5.83606 14.9508 6.00676C15.1691 6.17185 15.3305 6.38381 15.4322 6.63845L15.4345 6.64434L17.0468 10.9999H19.2727C19.5441 10.9999 19.7822 11.0974 19.97 11.2911C20.1578 11.4847 20.25 11.7267 20.25 11.9999C20.25 12.2729 20.1579 12.5147 19.9701 12.7079C19.7823 12.902 19.5442 12.9999 19.2727 12.9999H16.3636C16.1567 12.9999 15.9661 12.9413 15.8037 12.8177C15.6483 12.6999 15.5346 12.5428 15.4591 12.3561L15.4563 12.349L14.1822 8.89786L11.0686 17.3614C10.9669 17.616 10.8055 17.828 10.5872 17.9931C10.3614 18.1638 10.1023 18.2499 9.81818 18.2499C9.53405 18.2499 9.27492 18.1638 9.0492 17.9931C8.8309 17.828 8.6695 17.616 8.56782 17.3614L8.56547 17.3555L6.95324 12.9999H4.72727C4.45578 12.9999 4.21771 12.9021 4.02998 12.7079C3.84214 12.5148 3.75 12.273 3.75 11.9999C3.75 11.7267 3.84223 11.4847 4.02998 11.2911C4.21783 11.0974 4.45592 10.9999 4.72727 10.9999H7.63636C7.84328 10.9999 8.0339 11.0585 8.19631 11.1821C8.35165 11.2999 8.46544 11.457 8.54089 11.6438L8.54373 11.6508L9.81776 15.102L12.9314 6.63842C13.0331 6.38377 13.1945 6.17185 13.4128 6.00676Z" fill="#8C9DC5"/>
</g>
</g>
</svg>
