<svg width="48" height="49" viewBox="0 0 48 49" fill="none" xmlns="http://www.w3.org/2000/svg">
<g id="ic-create-new-function">
<g id="48x48">
<g id="ic">
<path fill-rule="evenodd" clip-rule="evenodd" d="M26.9694 19.7047C26.5891 19.6701 26.248 19.9478 26.2115 20.3441L26.2114 20.3455L26.0932 21.7123H27.4C27.9522 21.7123 28.4 22.16 28.4 22.7123V24.4123C28.4 24.9646 27.9522 25.4123 27.4 25.4123H25.7669L25.4723 28.8071C25.423 29.3827 25.2604 29.9436 24.994 30.4563C24.7274 30.9692 24.3622 31.4243 23.9193 31.7957C23.4764 32.167 22.9644 32.4472 22.4129 32.6201C21.8623 32.7927 21.283 32.855 20.7082 32.8035C20.0272 32.7453 19.369 32.5295 18.7858 32.173C18.2017 31.8161 17.7089 31.3281 17.3463 30.7475C17.0997 30.3527 17.1582 29.8399 17.4873 29.5107L18.7623 28.2357C19.0084 27.9896 19.3648 27.8891 19.7032 27.9705C20.0415 28.0518 20.3133 28.3032 20.4207 28.6343C20.5073 28.9014 20.7413 29.0955 21.024 29.1193L21.0305 29.1199C21.411 29.1545 21.7523 28.8765 21.7884 28.4799L22.0582 25.4123H20.6C20.0477 25.4123 19.6 24.9646 19.6 24.4123V22.7123C19.6 22.16 20.0477 21.7123 20.6 21.7123H22.3785L22.5277 20.0167C22.737 17.5983 24.8696 15.8028 27.2916 16.0211C28.7348 16.1434 29.9421 16.9496 30.6511 18.0731C30.9005 18.4683 30.843 18.9835 30.5126 19.3139L29.2376 20.5889C28.9915 20.835 28.6351 20.9354 28.2967 20.8541C27.9584 20.7728 27.6866 20.5213 27.5792 20.1903C27.4926 19.9232 27.2586 19.7291 26.9759 19.7053L26.9694 19.7047ZM27.2045 17.0173C25.3345 16.8473 23.6855 18.2328 23.524 20.1028L23.2945 22.7123H20.6V24.4123H23.15L22.7845 28.5688C22.6995 29.5123 21.875 30.2008 20.94 30.1158C20.6043 30.0875 20.3013 29.963 20.054 29.7725C19.7814 29.5626 19.5764 29.2725 19.4695 28.9428L18.1945 30.2178C18.4747 30.6666 18.8557 31.0439 19.3072 31.3198C19.7587 31.5957 20.2682 31.7626 20.7955 31.8073C21.2399 31.8474 21.6879 31.7994 22.1138 31.6659C22.5396 31.5324 22.9349 31.316 23.2769 31.0293C23.6189 30.7426 23.9008 30.3912 24.1066 29.9952C24.3124 29.5992 24.4379 29.1664 24.476 28.7218L24.85 24.4123H27.4V22.7123H25.003L25.2155 20.2558C25.3005 19.3123 26.125 18.6238 27.06 18.7088C27.3956 18.7371 27.6986 18.8616 27.9459 19.0521C28.2185 19.262 28.4235 19.5521 28.5305 19.8818L29.8055 18.6068C29.253 17.7313 28.318 17.1108 27.2045 17.0173Z" fill="url(#paint0_linear_250_272333)"/>
<path fill-rule="evenodd" clip-rule="evenodd" d="M32.3697 13.3831C31.4122 12.788 30.2255 12.7058 29.4265 12.8287C29.0171 12.8917 28.6342 12.6108 28.5712 12.2015C28.5082 11.7921 28.7891 11.4091 29.1985 11.3461C30.2411 11.1857 31.8169 11.2734 33.1615 12.1092C34.5612 12.9791 35.5875 14.5835 35.5875 17.1874C35.5875 20.1677 35.9196 21.7513 36.5144 22.6011C37.0405 23.3526 37.881 23.6624 39.5125 23.6624C39.9267 23.6624 40.2625 23.9982 40.2625 24.4124C40.2625 24.8266 39.9267 25.1624 39.5125 25.1624C37.744 25.1624 36.247 24.8347 35.2856 23.4613C34.3929 22.186 34.0875 20.1571 34.0875 17.1874C34.0875 15.0313 33.2721 13.944 32.3697 13.3831Z" fill="url(#paint1_linear_250_272333)"/>
<path fill-rule="evenodd" clip-rule="evenodd" d="M32.3697 35.4414C31.4122 36.0365 30.2255 36.1188 29.4265 35.9959C29.0171 35.9329 28.6342 36.2137 28.5712 36.6231C28.5082 37.0325 28.7891 37.4154 29.1985 37.4784C30.2411 37.6388 31.8169 37.5511 33.1615 36.7154C34.5612 35.8454 35.5875 34.241 35.5875 31.6371C35.5875 28.6568 35.9196 27.0732 36.5144 26.2235C37.0405 25.4719 37.881 25.1624 39.5125 25.1624C39.9267 25.1624 40.2625 24.8266 40.2625 24.4124C40.2625 23.9982 39.9267 23.6624 39.5125 23.6624C37.744 23.6624 36.247 23.9898 35.2856 25.3633C34.3929 26.6386 34.0875 28.6674 34.0875 31.6371C34.0875 33.7932 33.2721 34.8805 32.3697 35.4414Z" fill="url(#paint2_linear_250_272333)"/>
<path fill-rule="evenodd" clip-rule="evenodd" d="M15.6303 13.3832C16.5878 12.7881 17.7745 12.7059 18.5735 12.8288C18.9829 12.8918 19.3658 12.6109 19.4288 12.2015C19.4918 11.7921 19.211 11.4092 18.8016 11.3462C17.7589 11.1858 16.1831 11.2735 14.8385 12.1093C13.4388 12.9792 12.4125 14.5836 12.4125 17.1875C12.4125 20.1678 12.0804 21.7514 11.4856 22.6012C10.9596 23.3527 10.1191 23.6625 8.48755 23.6625C8.07334 23.6625 7.73755 23.9983 7.73755 24.4125C7.73755 24.8267 8.07334 25.1625 8.48755 25.1625C10.256 25.1625 11.753 24.8348 12.7145 23.4614C13.6072 22.1861 13.9125 20.1572 13.9125 17.1875C13.9125 15.0314 14.7279 13.9441 15.6303 13.3832Z" fill="url(#paint3_linear_250_272333)"/>
<path fill-rule="evenodd" clip-rule="evenodd" d="M15.6303 35.4415C16.5878 36.0366 17.7745 36.1189 18.5735 35.9959C18.9829 35.933 19.3658 36.2138 19.4288 36.6232C19.4918 37.0326 19.211 37.4155 18.8016 37.4785C17.7589 37.6389 16.1831 37.5512 14.8385 36.7155C13.4388 35.8455 12.4125 34.2411 12.4125 31.6372C12.4125 28.6569 12.0804 27.0733 11.4856 26.2236C10.9596 25.472 10.1191 25.1625 8.48755 25.1625C8.07334 25.1625 7.73755 24.8267 7.73755 24.4125C7.73755 23.9983 8.07334 23.6625 8.48755 23.6625C10.256 23.6625 11.753 23.9899 12.7145 25.3634C13.6072 26.6386 13.9125 28.6675 13.9125 31.6372C13.9125 33.7933 14.7279 34.8806 15.6303 35.4415Z" fill="url(#paint4_linear_250_272333)"/>
</g>
</g>
</g>
<defs>
<linearGradient id="paint0_linear_250_272333" x1="40.2625" y1="26.1733" x2="7.73755" y2="26.1733" gradientUnits="userSpaceOnUse">
<stop stop-color="#6D5E92"/>
<stop offset="1" stop-color="#272C41"/>
</linearGradient>
<linearGradient id="paint1_linear_250_272333" x1="40.2625" y1="26.1733" x2="7.73755" y2="26.1733" gradientUnits="userSpaceOnUse">
<stop stop-color="#6D5E92"/>
<stop offset="1" stop-color="#272C41"/>
</linearGradient>
<linearGradient id="paint2_linear_250_272333" x1="40.2625" y1="26.1733" x2="7.73755" y2="26.1733" gradientUnits="userSpaceOnUse">
<stop stop-color="#6D5E92"/>
<stop offset="1" stop-color="#272C41"/>
</linearGradient>
<linearGradient id="paint3_linear_250_272333" x1="40.2625" y1="26.1733" x2="7.73755" y2="26.1733" gradientUnits="userSpaceOnUse">
<stop stop-color="#6D5E92"/>
<stop offset="1" stop-color="#272C41"/>
</linearGradient>
<linearGradient id="paint4_linear_250_272333" x1="40.2625" y1="26.1733" x2="7.73755" y2="26.1733" gradientUnits="userSpaceOnUse">
<stop stop-color="#6D5E92"/>
<stop offset="1" stop-color="#272C41"/>
</linearGradient>
</defs>
</svg>
