<svg width="49" height="49" viewBox="0 0 49 49" fill="none" xmlns="http://www.w3.org/2000/svg">
<g id="ic-create-realtime-function">
<g id="48x48">
<g id="Union">
<path d="M20.8765 19.8356C21.3407 19.5471 21.9354 19.5013 22.3398 19.5635C22.7492 19.6265 23.1321 19.3457 23.1951 18.9363C23.2581 18.5269 22.9773 18.1439 22.5679 18.081C21.9198 17.9813 20.936 18.0326 20.0847 18.5617C19.1783 19.125 18.5467 20.1526 18.5467 21.7365C18.5467 23.4418 18.3512 24.2513 18.0751 24.6457C17.8678 24.9419 17.5282 25.1151 16.6252 25.1151C16.211 25.1151 15.8752 25.4509 15.8752 25.8651C15.8752 26.2793 16.211 26.6151 16.6252 26.6151C17.5282 26.6151 17.8678 26.7883 18.0751 27.0844C18.3512 27.4788 18.5467 28.2883 18.5467 29.9936C18.5467 31.5776 19.1783 32.6051 20.0847 33.1685C20.936 33.6976 21.9198 33.7489 22.5679 33.6492C22.9773 33.5862 23.2581 33.2033 23.1951 32.7939C23.1321 32.3845 22.7492 32.1037 22.3398 32.1666C21.9354 32.2289 21.3407 32.183 20.8765 31.8945C20.4674 31.6402 20.0467 31.1297 20.0467 29.9936C20.0467 28.299 19.8779 27.0442 19.304 26.2243C19.2096 26.0894 19.1076 25.9703 18.9989 25.8651C19.1076 25.7599 19.2096 25.6407 19.304 25.5059C19.8779 24.686 20.0467 23.4312 20.0467 21.7365C20.0467 20.6004 20.4674 20.0899 20.8765 19.8356Z" fill="url(#paint0_linear_250_272341)"/>
<path d="M28.9153 19.8356C28.4511 19.5471 27.8564 19.5013 27.452 19.5635C27.0426 19.6265 26.6597 19.3457 26.5967 18.9363C26.5337 18.5269 26.8146 18.1439 27.224 18.081C27.872 17.9813 28.8558 18.0326 29.7071 18.5617C30.6135 19.125 31.2451 20.1526 31.2451 21.7365C31.2451 23.4418 31.4406 24.2513 31.7167 24.6457C31.924 24.9419 32.2636 25.1151 33.1666 25.1151C33.5808 25.1151 33.9166 25.4509 33.9166 25.8651C33.9166 26.2793 33.5808 26.6151 33.1666 26.6151C32.2636 26.6151 31.924 26.7883 31.7167 27.0844C31.4406 27.4788 31.2451 28.2883 31.2451 29.9936C31.2451 31.5776 30.6135 32.6051 29.7071 33.1685C28.8558 33.6976 27.872 33.7489 27.224 33.6492C26.8146 33.5862 26.5337 33.2033 26.5967 32.7939C26.6597 32.3845 27.0426 32.1037 27.452 32.1666C27.8564 32.2289 28.4511 32.183 28.9153 31.8945C29.3244 31.6402 29.7451 31.1297 29.7451 29.9936C29.7451 28.299 29.9139 27.0442 30.4879 26.2243C30.5822 26.0894 30.6843 25.9703 30.7929 25.8651C30.6843 25.7599 30.5822 25.6407 30.4879 25.5059C29.9139 24.686 29.7451 23.4312 29.7451 21.7365C29.7451 20.6004 29.3244 20.0899 28.9153 19.8356Z" fill="url(#paint1_linear_250_272341)"/>
<path fill-rule="evenodd" clip-rule="evenodd" d="M20.9072 8.42139C20.9072 8.00717 21.243 7.67139 21.6572 7.67139H28.1416C28.5558 7.67139 28.8916 8.00717 28.8916 8.42139C28.8916 8.8356 28.5558 9.17139 28.1416 9.17139H25.6415V10.9714C25.6415 11.0092 25.6387 11.0463 25.6333 11.0826C33.5767 11.4653 39.8994 18.0267 39.8994 26.0649C39.8994 34.3492 33.1837 41.0649 24.8994 41.0649C16.6151 41.0649 9.89941 34.3492 9.89941 26.0649C9.89941 18.032 16.2138 11.4739 24.1498 11.0833C24.1443 11.0468 24.1415 11.0094 24.1415 10.9714V9.17139H21.6572C21.243 9.17139 20.9072 8.8356 20.9072 8.42139ZM24.8994 39.5649C32.3553 39.5649 38.3994 33.5208 38.3994 26.0649C38.3994 18.6091 32.3553 12.5649 24.8994 12.5649C17.4436 12.5649 11.3994 18.6091 11.3994 26.0649C11.3994 33.5208 17.4436 39.5649 24.8994 39.5649Z" fill="url(#paint2_linear_250_272341)"/>
</g>
</g>
</g>
<defs>
<linearGradient id="paint0_linear_250_272341" x1="39.8994" y1="26.6072" x2="9.89941" y2="26.6072" gradientUnits="userSpaceOnUse">
<stop stop-color="#6D5E92"/>
<stop offset="1" stop-color="#272C41"/>
</linearGradient>
<linearGradient id="paint1_linear_250_272341" x1="39.8994" y1="26.6072" x2="9.89941" y2="26.6072" gradientUnits="userSpaceOnUse">
<stop stop-color="#6D5E92"/>
<stop offset="1" stop-color="#272C41"/>
</linearGradient>
<linearGradient id="paint2_linear_250_272341" x1="39.8994" y1="26.6072" x2="9.89941" y2="26.6072" gradientUnits="userSpaceOnUse">
<stop stop-color="#6D5E92"/>
<stop offset="1" stop-color="#272C41"/>
</linearGradient>
</defs>
</svg>
