<svg width="48" height="49" viewBox="0 0 48 49" fill="none" xmlns="http://www.w3.org/2000/svg">
<g id="ic-create-featureset">
<g id="48x48">
<g id="ic">
<path fill-rule="evenodd" clip-rule="evenodd" d="M21.0234 35.9744C22.6803 35.9744 24.0234 34.6312 24.0234 32.9744C24.0234 31.3175 22.6803 29.9744 21.0234 29.9744C19.3666 29.9744 18.0234 31.3175 18.0234 32.9744C18.0234 34.6312 19.3666 35.9744 21.0234 35.9744ZM21.0234 34.4744C21.8519 34.4744 22.5234 33.8028 22.5234 32.9744C22.5234 32.1459 21.8519 31.4744 21.0234 31.4744C20.195 31.4744 19.5234 32.1459 19.5234 32.9744C19.5234 33.8028 20.195 34.4744 21.0234 34.4744Z" fill="url(#paint0_linear_250_272258)"/>
<path fill-rule="evenodd" clip-rule="evenodd" d="M16.0234 9.97437C15.4712 9.97437 15.0234 10.4221 15.0234 10.9744V33.9744C15.0234 37.2881 17.7097 39.9744 21.0234 39.9744C24.3371 39.9744 27.0234 37.2881 27.0234 33.9744V10.9744C27.0234 10.4221 26.5757 9.97437 26.0234 9.97437H16.0234ZM16.5234 11.4744V33.9744C16.5234 36.4596 18.5382 38.4744 21.0234 38.4744C23.5087 38.4744 25.5234 36.4596 25.5234 33.9744V11.4744H16.5234Z" fill="url(#paint1_linear_250_272258)"/>
<path d="M41.1229 26.9602L27.1258 36.4012C27.3946 35.7514 27.5483 35.0418 27.5616 34.298L39.8685 25.9969L35.4362 19.4257L27.5625 33.0632V30.0632L35.2762 16.7028L27.5625 12.2493V11.0192C27.5625 10.8482 27.5215 10.6869 27.4487 10.5444C27.5819 10.5615 27.714 10.6048 27.8376 10.6761L36.4592 15.6537C36.9375 15.9299 37.1014 16.5415 36.8252 17.0198L36.2706 17.9804L41.3917 25.5727C41.6999 26.0301 41.5797 26.6513 41.1229 26.9602Z" fill="url(#paint2_linear_250_272258)"/>
</g>
</g>
</g>
<defs>
<linearGradient id="paint0_linear_250_272258" x1="41.5625" y1="26.9859" x2="15.0234" y2="26.9859" gradientUnits="userSpaceOnUse">
<stop stop-color="#6D5E92"/>
<stop offset="1" stop-color="#272C41"/>
</linearGradient>
<linearGradient id="paint1_linear_250_272258" x1="41.5625" y1="26.9859" x2="15.0234" y2="26.9859" gradientUnits="userSpaceOnUse">
<stop stop-color="#6D5E92"/>
<stop offset="1" stop-color="#272C41"/>
</linearGradient>
<linearGradient id="paint2_linear_250_272258" x1="41.5625" y1="26.9859" x2="15.0234" y2="26.9859" gradientUnits="userSpaceOnUse">
<stop stop-color="#6D5E92"/>
<stop offset="1" stop-color="#272C41"/>
</linearGradient>
</defs>
</svg>
