<svg width="48" height="49" viewBox="0 0 48 49" fill="none" xmlns="http://www.w3.org/2000/svg">
<g id="ic-register-artifact">
<g id="48x48">
<path id="ic" fill-rule="evenodd" clip-rule="evenodd" d="M20.0625 11.8019H32.371C33.107 11.8019 33.5 12.3293 33.5 12.736V28.368L35 29.2117V12.736C35 11.4006 33.8315 10.3019 32.371 10.3019H18.6415L13 15.3898V34.9303C13 36.2657 14.1685 37.3644 15.629 37.3644H24.0312V35.8644H15.629C14.893 35.8644 14.5 35.337 14.5 34.9303V17.3956H20.0625V11.8019ZM14.6789 15.8956H18.5625V12.3931L14.6789 15.8956ZM26.5338 32.3082L30.9907 29.8012L35.4258 32.2959C35.3963 32.3079 35.3672 32.3219 35.3387 32.3379L30.9893 34.7844C30.9768 34.7764 30.964 34.7686 30.9509 34.7613L26.7234 32.3833C26.6624 32.349 26.5986 32.3241 26.5338 32.3082ZM26.4907 33.9734V37.3279L30.1657 39.3951V36.0406L26.4907 33.9734ZM31.8158 39.3951V36.0405L35.4907 33.9734V37.3279L31.8158 39.3951ZM30.5005 28.356C30.8049 28.1847 31.1766 28.1847 31.481 28.356L36.481 31.1685C36.7959 31.3456 36.9907 31.6788 36.9907 32.04V37.6203C36.9907 37.9816 36.7959 38.3148 36.481 38.4919L31.481 41.3044C31.1766 41.4757 30.8049 41.4757 30.5005 41.3044L25.5005 38.4919C25.1856 38.3148 24.9907 37.9816 24.9907 37.6203V32.04C24.9907 31.6788 25.1856 31.3456 25.5005 31.1685L30.5005 28.356ZM18.0312 20.0757C18.0312 19.6615 18.367 19.3257 18.7812 19.3257H29.2812C29.6955 19.3257 30.0312 19.6615 30.0312 20.0757C30.0312 20.4899 29.6955 20.8257 29.2812 20.8257H18.7812C18.367 20.8257 18.0312 20.4899 18.0312 20.0757ZM18 26.9507C18 26.5365 18.3358 26.2007 18.75 26.2007H28.2656C28.6798 26.2007 29.0156 26.5365 29.0156 26.9507C29.0156 27.3649 28.6798 27.7007 28.2656 27.7007H18.75C18.3358 27.7007 18 27.3649 18 26.9507ZM18.0312 23.5132C18.0312 23.099 18.367 22.7632 18.7812 22.7632H26.2812C26.6955 22.7632 27.0312 23.099 27.0312 23.5132C27.0312 23.9274 26.6955 24.2632 26.2812 24.2632H18.7812C18.367 24.2632 18.0312 23.9274 18.0312 23.5132Z" fill="url(#paint0_linear_250_272250)"/>
</g>
</g>
<defs>
<linearGradient id="paint0_linear_250_272250" x1="36.9907" y1="27.9547" x2="13" y2="27.9547" gradientUnits="userSpaceOnUse">
<stop stop-color="#6D5E92"/>
<stop offset="1" stop-color="#272C41"/>
</linearGradient>
</defs>
</svg>
