<svg width="48" height="49" viewBox="0 0 48 49" fill="none" xmlns="http://www.w3.org/2000/svg">
<g id="ic-train-model">
<g id="48x48">
<g id="ic">
<path d="M27.0176 23.7103C27.0176 25.3672 25.6744 26.7103 24.0176 26.7103C22.3607 26.7103 21.0176 25.3672 21.0176 23.7103C21.0176 22.0535 22.3607 20.7103 24.0176 20.7103C25.6744 20.7103 27.0176 22.0535 27.0176 23.7103Z" fill="white"/>
<path fill-rule="evenodd" clip-rule="evenodd" d="M28.0176 13.7258C28.0176 15.6848 26.6094 17.3149 24.75 17.6589V20.8004C25.5476 21.0005 26.2184 21.5199 26.6188 22.2148L29.0866 21.4674C29.0829 21.3968 29.0811 21.3258 29.0811 21.2543C29.0811 19.0451 30.8719 17.2543 33.0811 17.2543C35.2902 17.2543 37.0811 19.0451 37.0811 21.2543C37.0811 23.4634 35.2902 25.2543 33.0811 25.2543C31.4687 25.2543 30.0791 24.3002 29.446 22.9259L27.0172 23.6614C27.0174 23.6777 27.0176 23.694 27.0176 23.7103C27.0176 24.1725 26.9131 24.6102 26.7264 25.0012L28.7537 27.8774C29.1327 27.7584 29.5359 27.6942 29.9541 27.6942C30.9795 27.6942 31.9149 28.0801 32.6228 28.7145C32.1692 28.9728 31.7473 29.2802 31.3643 29.6297C30.9629 29.3549 30.4773 29.1942 29.9541 29.1942C28.5734 29.1942 27.4541 30.3135 27.4541 31.6942C27.4541 32.7827 28.1498 33.7088 29.1208 34.052C29.0945 34.2984 29.0811 34.5486 29.0811 34.802C29.0811 35.0748 29.0967 35.3439 29.127 35.6086C27.3147 35.2276 25.9541 33.6198 25.9541 31.6942C25.9541 30.4447 26.5271 29.3289 27.4246 28.5954L25.7218 26.1796C25.2378 26.5143 24.6506 26.7103 24.0176 26.7103C23.3778 26.7103 22.7848 26.5101 22.2979 26.1688L20.5875 28.5953C21.4851 29.3289 22.0581 30.4446 22.0581 31.6942C22.0581 33.9034 20.2672 35.6942 18.0581 35.6942C15.849 35.6942 14.0581 33.9034 14.0581 31.6942C14.0581 29.4851 15.849 27.6942 18.0581 27.6942C18.4763 27.6942 18.8795 27.7584 19.2584 27.8774L21.2995 24.9816C21.1186 24.5956 21.0176 24.1648 21.0176 23.7103L21.0178 23.672L18.5453 22.9232C17.8935 24.248 16.5303 25.1597 14.9541 25.1597C12.745 25.1597 10.9541 23.3688 10.9541 21.1597C10.9541 18.9505 12.745 17.1597 14.9541 17.1597C17.1632 17.1597 18.9541 18.9505 18.9541 21.1597C18.9541 21.2661 18.9499 21.3716 18.9418 21.476L21.4111 22.2239C21.805 21.5347 22.4644 21.0167 23.25 20.8094V17.6523C21.4081 17.2943 20.0176 15.6724 20.0176 13.7258C20.0176 11.5167 21.8084 9.72583 24.0176 9.72583C26.2267 9.72583 28.0176 11.5167 28.0176 13.7258ZM24.0176 16.2258C25.3983 16.2258 26.5176 15.1065 26.5176 13.7258C26.5176 12.3451 25.3983 11.2258 24.0176 11.2258C22.6369 11.2258 21.5176 12.3451 21.5176 13.7258C21.5176 15.1065 22.6369 16.2258 24.0176 16.2258ZM17.4541 21.1597C17.4541 22.5404 16.3348 23.6597 14.9541 23.6597C13.5734 23.6597 12.4541 22.5404 12.4541 21.1597C12.4541 19.779 13.5734 18.6597 14.9541 18.6597C16.3348 18.6597 17.4541 19.779 17.4541 21.1597ZM33.0811 23.7543C34.4618 23.7543 35.5811 22.635 35.5811 21.2543C35.5811 19.8736 34.4618 18.7543 33.0811 18.7543C31.7003 18.7543 30.5811 19.8736 30.5811 21.2543C30.5811 22.635 31.7003 23.7543 33.0811 23.7543ZM20.5581 31.6942C20.5581 33.0749 19.4388 34.1942 18.0581 34.1942C16.6774 34.1942 15.5581 33.0749 15.5581 31.6942C15.5581 30.3135 16.6774 29.1942 18.0581 29.1942C19.4388 29.1942 20.5581 30.3135 20.5581 31.6942ZM24.0176 25.2103C24.846 25.2103 25.5176 24.5388 25.5176 23.7103C25.5176 22.8819 24.846 22.2103 24.0176 22.2103C23.1892 22.2103 22.5176 22.8819 22.5176 23.7103C22.5176 24.5388 23.1892 25.2103 24.0176 25.2103Z" fill="url(#paint0_linear_250_272283)"/>
<path d="M38.8542 35.1484C39.1209 34.9944 39.1209 34.6095 38.8542 34.4556L34.8042 32.1173C34.5375 31.9633 34.2042 32.1558 34.2042 32.4637V37.1402C34.2042 37.4482 34.5375 37.6406 34.8042 37.4867L38.8542 35.1484Z" fill="url(#paint1_linear_250_272283)"/>
<path fill-rule="evenodd" clip-rule="evenodd" d="M41.9541 34.802C41.9541 38.1157 39.2678 40.802 35.9541 40.802C32.6404 40.802 29.9541 38.1157 29.9541 34.802C29.9541 31.4883 32.6404 28.802 35.9541 28.802C39.2678 28.802 41.9541 31.4883 41.9541 34.802ZM40.4541 34.802C40.4541 37.2873 38.4394 39.302 35.9541 39.302C33.4688 39.302 31.4541 37.2873 31.4541 34.802C31.4541 32.3167 33.4688 30.302 35.9541 30.302C38.4394 30.302 40.4541 32.3167 40.4541 34.802Z" fill="url(#paint2_linear_250_272283)"/>
</g>
</g>
</g>
<defs>
<linearGradient id="paint0_linear_250_272283" x1="41.9541" y1="27.3476" x2="10.9541" y2="27.3476" gradientUnits="userSpaceOnUse">
<stop stop-color="#6D5E92"/>
<stop offset="1" stop-color="#272C41"/>
</linearGradient>
<linearGradient id="paint1_linear_250_272283" x1="41.9541" y1="27.3476" x2="10.9541" y2="27.3476" gradientUnits="userSpaceOnUse">
<stop stop-color="#6D5E92"/>
<stop offset="1" stop-color="#272C41"/>
</linearGradient>
<linearGradient id="paint2_linear_250_272283" x1="41.9541" y1="27.3476" x2="10.9541" y2="27.3476" gradientUnits="userSpaceOnUse">
<stop stop-color="#6D5E92"/>
<stop offset="1" stop-color="#272C41"/>
</linearGradient>
</defs>
</svg>
