<svg width="24" height="24" viewBox="0 0 24 24" fill="none" xmlns="http://www.w3.org/2000/svg">
<path d="M9.07107 13.2426L7.65685 14.6569L5.53553 12.5355C3.58291 10.5829 3.58291 7.41709 5.53553 5.46447C7.48816 3.51184 10.654 3.51184 12.6066 5.46447L14.7279 7.58579L13.3137 9L11.1924 6.87868C10.0208 5.70711 8.12132 5.70711 6.94975 6.87868C5.77817 8.05025 5.77817 9.94975 6.94975 11.1213L9.07107 13.2426Z" fill="#7F7989"/>
<path d="M14.0208 15.364L8.36396 9.70711L9.77817 8.29289L15.435 13.9497L14.0208 15.364Z" fill="#7F7989"/>
<path d="M16.1421 9L14.7279 10.4142L16.8492 12.5355C18.0208 13.7071 18.0208 15.6066 16.8492 16.7782C15.6777 17.9497 13.7782 17.9497 12.6066 16.7782L10.4853 14.6569L9.07107 16.0711L11.1924 18.1924C13.145 20.145 16.3108 20.145 18.2635 18.1924C20.2161 16.2398 20.2161 13.0739 18.2635 11.1213L16.1421 9Z" fill="#7F7989"/>
</svg>
