<svg width="24" height="24" viewBox="0 0 24 24" fill="none" xmlns="http://www.w3.org/2000/svg">
<path d="M16.614 6H14V4H20V10H18V7.44238L14.6642 10.7782L13.25 9.36395L16.614 6Z" fill="#7F7989"/>
<path d="M18.0142 16.614V14H20.0142V20H14.0142V18H16.5718L13.236 14.6642L14.6502 13.25L18.0142 16.614Z" fill="#7F7989"/>
<path d="M7.38605 18.0141H10V20.0141H4L4 14.0141H6L6 16.5717L9.33579 13.2359L10.75 14.6501L7.38605 18.0141Z" fill="#7F7989"/>
<path d="M5.98584 7.38605V10H3.98584L3.98584 4L9.98584 4V6L7.42822 6L10.764 9.33579L9.34979 10.75L5.98584 7.38605Z" fill="#7F7989"/>
</svg>
